# xmcd CD database file
#
# Track frame offsets:
#	150
#	22875
#	42247
#	61177
#	77035
#
# Disc length: 1236 seconds
#
# Revision: 0
# Processed by: cddbd v1.5.2PL0 Copyright (c) Steve Scherf et al.
# Submitted via: CDex 1.70beta2
#
DISCID=3004d205
DTITLE=Hermann Eugster and Joe Schwach and Lisa Vonesch and Christine Witschi - Spirit Movement
DYEAR=2000
DGENRE=New Age
TTITLE0=Right time
TTITLE1=We all shape this place
TTITLE2=Age of truth
TTITLE3=This is my life
TTITLE4=What's new today
EXTD=YEAR: 2000
EXTT0=
EXTT1=
EXTT2=
EXTT3=
EXTT4=
PLAYORDER=
